<svg xmlns="http://www.w3.org/2000/svg" viewBox="0 0 554.09 258.63"><defs><style>.cls-1{font-size:138.94px;letter-spacing:-0.02em;}.cls-1,.cls-2,.cls-3{fill:#404041;}.cls-1,.cls-2{font-family:Righteous-Regular, Righteous;}.cls-2{font-size:69.51px;}</style></defs><title>Asset 11</title><g id="Layer_2" data-name="Layer 2"><g id="Layer_1-2" data-name="Layer 1"><text class="cls-1" transform="translate(0 145.22)">Gonzalez</text><text class="cls-2" transform="translate(168.91 59.09)">BEN</text><path class="cls-3" d="M162.76,59.09c0-3.14-.07-6.22-.11-9.2-.45-15.1-1.5-25-1.63-28.85.81-2.07.47-4.12-.83-4.17-.86-.12-2,1.37-.93,4-.74,5.93-1,16.42-1.68,29.45-.08,2.81-.14,5.73-.18,8.74"/><path class="cls-3" d="M152,59.09c0-2.43-.06-4.83-.1-7.16-.45-15.09-1.5-25-1.63-28.85.81-2.06.47-4.12-.83-4.17-.86-.11-2,1.37-.94,4-.73,5.93-1,16.42-1.68,29.45-.06,2.18-.1,4.41-.14,6.7"/><path class="cls-3" d="M141.18,59.09c0-1.73,0-3.44-.07-5.11-.45-15.1-1.5-25-1.63-28.85.81-2.07.46-4.12-.84-4.17-.86-.12-2,1.37-.93,4-.74,5.93-1,16.42-1.68,29.45,0,1.52-.07,3.08-.11,4.65"/><path class="cls-3" d="M127.87,23c-.85-.11-2,1.37-.93,4-.74,5.93-1,16.42-1.68,29.45,0,.86-.05,1.73-.07,2.61h5.2c0-1,0-2.05,0-3.07-.45-15.09-1.5-25-1.63-28.85C129.52,25.11,129.17,23.05,127.87,23Z"/><path class="cls-3" d="M117.1,25.05c-.85-.12-2,1.37-.93,4-.74,5.93-1,16.42-1.69,29.45,0,.18,0,.38,0,.56h5.12c0-.35,0-.68,0-1-.46-15.1-1.51-25-1.64-28.85C118.74,27.15,118.4,25.1,117.1,25.05Z"/><path class="cls-3" d="M307,59.09c0-3.14.07-6.22.12-9.2.44-15.1,1.49-25,1.62-28.85-.81-2.07-.46-4.12.84-4.17.86-.12,2,1.37.93,4,.74,5.93,1,16.42,1.68,29.45.07,2.81.13,5.73.18,8.74"/><path class="cls-3" d="M317.76,59.09c0-2.43.06-4.83.09-7.16.45-15.09,1.5-25,1.64-28.85-.82-2.06-.47-4.12.83-4.17.86-.11,2,1.37.93,4,.74,5.93,1,16.42,1.68,29.45q.09,3.27.15,6.7"/><path class="cls-3" d="M328.55,59.09c0-1.73.05-3.44.07-5.11.46-15.1,1.51-25,1.64-28.85-.81-2.07-.47-4.12.83-4.17.86-.12,2,1.37.93,4,.74,5.93,1,16.42,1.69,29.45,0,1.52.07,3.08.1,4.65"/><path class="cls-3" d="M341.87,23c.84-.11,2,1.37.93,4,.74,5.93,1,16.42,1.68,29.45,0,.86,0,1.73.07,2.61h-5.2c0-1,0-2.05,0-3.07.45-15.09,1.5-25,1.63-28.85C340.22,25.11,340.57,23.05,341.87,23Z"/><path class="cls-3" d="M352.64,25.05c.85-.12,2,1.37.93,4,.74,5.93,1,16.42,1.68,29.45,0,.18,0,.38,0,.56h-5.11c0-.35,0-.68,0-1,.45-15.1,1.5-25,1.63-28.85C351,27.15,351.34,25.1,352.64,25.05Z"/><path class="cls-3" d="M20.45,156.75q.06,44.28.11,88.56c0,3.13-.95,6.3,6.14,6.31,6.78,0,6.48-2.75,6.5-6.12q0-44.37.07-88.75Z"/><path class="cls-3" d="M3.65,156.75q.06,35.57.11,71.13c0,2.52-.95,5.06,6.14,5.07,6.78,0,6.48-2.21,6.5-4.92q0-35.62.07-71.28Z"/><path class="cls-3" d="M37.28,156.75q0,47.55.11,95.1c0,3.37-1,6.76,6.14,6.78,6.78,0,6.48-3,6.5-6.58q0-47.64.07-95.3Z"/><path class="cls-3" d="M54.05,156.75q.06,46.6.11,93.21c0,3.3-.95,6.63,6.14,6.64,6.78,0,6.48-2.9,6.5-6.44q0-46.69.07-93.41Z"/><path class="cls-3" d="M70.84,156.75Q70.9,201,71,245.31c0,3.13-1,6.3,6.15,6.31,6.77,0,6.47-2.75,6.49-6.12q0-44.37.08-88.75Z"/><path class="cls-3" d="M117.26,156.75H104.45q.06,32.19.08,64.36c0,3.75,0,6.57,6.18,6.55,5.77,0,6.51-2.29,6.51-6.31Q117.22,189.06,117.26,156.75Z"/><path class="cls-3" d="M134.07,156.75H121.26q.06,36.06.08,72.13c0,4.2.06,7.35,6.18,7.34,5.77,0,6.51-2.57,6.51-7.08Q134,192.95,134.07,156.75Z"/><path class="cls-3" d="M150.88,156.75H138.07q.06,34.13.08,68.24c0,4,0,7,6.17,6.95,5.77,0,6.52-2.43,6.52-6.69Q150.84,191,150.88,156.75Z"/><path class="cls-3" d="M167.68,156.75h-12.8q0,26.25.07,52.5c0,3.06.06,5.36,6.18,5.34,5.77,0,6.51-1.87,6.51-5.15Q167.64,183.1,167.68,156.75Z"/><path class="cls-3" d="M184.46,156.75h-12.8q0,32.19.07,64.36c0,3.75.06,6.57,6.18,6.55,5.77,0,6.51-2.29,6.51-6.31Q184.42,189.06,184.46,156.75Z"/><path class="cls-3" d="M201.27,156.75H188.46q.06,34.13.07,68.24c0,4,.06,7,6.18,6.95,5.77,0,6.52-2.43,6.52-6.69Q201.23,191,201.27,156.75Z"/><path class="cls-3" d="M218.07,156.75H205.26q.06,35.1.08,70.19c0,4.08,0,7.16,6.17,7.14,5.77,0,6.52-2.5,6.52-6.89Q218,192,218.07,156.75Z"/><path class="cls-3" d="M234.87,156.75H222.06q.06,28.84.08,57.68c0,3.36.05,5.88,6.18,5.87,5.76,0,6.51-2.06,6.51-5.66Q234.83,185.69,234.87,156.75Z"/><path class="cls-3" d="M251.7,156.75H238.89Q239,190.88,239,225c0,4,.06,7,6.18,6.95,5.77,0,6.52-2.43,6.52-6.69Q251.66,191,251.7,156.75Z"/><path class="cls-3" d="M83.66,156.75H70.85q.06,42.6.08,85.25c0,5.51,0,9.65,6.18,9.62,5.76,0,6.51-3.37,6.51-9.27Q83.62,199.54,83.66,156.75Z"/><path class="cls-3" d="M100.46,156.75H87.66q.06,24,.07,48.1c0,3.11.06,5.44,6.18,5.43,5.77,0,6.52-1.9,6.52-5.23Q100.43,180.89,100.46,156.75Z"/><path class="cls-3" d="M268.47,156.75H256.09c-.09,22.84-.16,45.68-.37,68.52,0,4.87.71,7.79,6,7.68,4.63-.1,6.68-1.45,6.68-7Q268.42,191.34,268.47,156.75Z"/><path class="cls-3" d="M285.25,156.75H272.88c-.1,21.73-.17,43.45-.38,65.18,0,4.63.71,7.41,6.05,7.31,4.63-.1,6.68-1.38,6.68-6.68Q285.22,189.65,285.25,156.75Z"/><path class="cls-3" d="M302.06,156.75H289.69c-.1,17.34-.17,34.67-.38,52,0,3.69.71,5.91,6.05,5.83,4.63-.08,6.68-1.1,6.68-5.33Q302,183,302.06,156.75Z"/><path class="cls-3" d="M318.84,156.75H306.46c-.09,15.37-.16,30.75-.37,46.12,0,3.27.71,5.24,6.05,5.17,4.63-.07,6.68-1,6.68-4.73Q318.79,180,318.84,156.75Z"/><path class="cls-3" d="M335.65,156.75H323.27c-.09,21.26-.17,42.51-.37,63.76,0,4.53.71,7.25,6.05,7.15,4.62-.1,6.68-1.35,6.68-6.53Q335.6,188.93,335.65,156.75Z"/><path class="cls-3" d="M352.47,156.75H340.09c-.09,23.4-.17,46.8-.37,70.2,0,5,.71,8,6,7.87,4.63-.1,6.69-1.48,6.69-7.19Q352.42,192.19,352.47,156.75Z"/><path class="cls-3" d="M369.24,156.75H356.88c-.1,21.51-.17,43-.38,64.51,0,5.4,1.67,7.36,6.05,7.18,3.79-.14,6.65-.43,6.65-6.45Q369.2,189.35,369.24,156.75Z"/><path class="cls-3" d="M386,156.75H373.66c-.09,22.46-.17,44.92-.37,67.38,0,5.63,1.66,7.69,6,7.5,3.79-.14,6.64-.45,6.64-6.74Q386,190.81,386,156.75Z"/><path class="cls-3" d="M402.82,156.75H390.46c-.09,30.29-.16,60.58-.37,90.87,0,7.59,1.66,10.36,6.05,10.1,3.79-.19,6.64-.6,6.64-9.09Q402.78,202.69,402.82,156.75Z"/><path class="cls-3" d="M419.61,156.75H407.26c-.1,29.22-.17,58.44-.38,87.66,0,7.33,1.66,10,6.05,9.75,3.79-.18,6.65-.58,6.65-8.77Q419.58,201.05,419.61,156.75Z"/><path class="cls-3" d="M436.44,156.75H424.08c-.09,19.06-.17,38.12-.37,57.18,0,4.78,1.66,6.52,6,6.36,3.79-.12,6.65-.38,6.65-5.72Q436.4,185.65,436.44,156.75Z"/><path class="cls-3" d="M453.25,156.75H440.89c-.09,21.13-.16,42.25-.37,63.38,0,5.29,1.66,7.22,6.05,7.05,3.79-.14,6.64-.43,6.64-6.34Q453.21,188.79,453.25,156.75Z"/><path class="cls-3" d="M470.06,156.75H457.71c-.1,23.42-.17,46.83-.38,70.25,0,5.87,1.66,8,6.05,7.81,3.79-.14,6.65-.46,6.65-7Q470,192.26,470.06,156.75Z"/><path class="cls-3" d="M486.85,156.75H474.49c-.09,20.9-.17,41.79-.37,62.69,0,5.24,1.66,7.15,6,7,3.79-.13,6.65-.41,6.65-6.27Q486.81,188.43,486.85,156.75Z"/><path class="cls-3" d="M503.63,156.75H491.27c-.09,22-.17,44-.37,66,0,5.52,1.66,7.52,6.05,7.34,3.79-.14,6.64-.44,6.64-6.6Q503.59,190.1,503.63,156.75Z"/><path class="cls-3" d="M520.45,156.75H508.09c-.09,22.7-.17,45.41-.37,68.11,0,5.69,1.66,7.77,6,7.58,3.79-.15,6.64-.46,6.64-6.82Q520.41,191.18,520.45,156.75Z"/><path class="cls-3" d="M537.27,156.75H524.91c-.09,23.42-.17,46.83-.37,70.25,0,5.87,1.66,8,6.05,7.81,3.78-.14,6.64-.46,6.64-7Q537.23,192.26,537.27,156.75Z"/><path class="cls-3" d="M554.09,156.75H541.73c-.09,21.24-.17,42.48-.37,63.71,0,5.33,1.66,7.27,6,7.09,3.79-.13,6.65-.42,6.65-6.37Q554.05,188.95,554.09,156.75Z"/></g></g></svg>